<svg width="9" height="10" viewBox="0 0 9 10" fill="none" xmlns="http://www.w3.org/2000/svg">
<path d="M4.80833 7.26284L4.24264 7.82852C3.86757 8.20359 3.35886 8.41431 2.82843 8.41431C2.29799 8.41431 1.78929 8.20359 1.41421 7.82852C1.03914 7.45345 0.828427 6.94474 0.828427 6.41431C0.828427 5.88387 1.03914 5.37517 1.41421 5.00009L1.9799 4.43441" stroke="#64748B" stroke-linecap="round" stroke-linejoin="round"/>
<path d="M3.677 2.7373L4.24269 2.17162C4.61776 1.79655 5.12647 1.58583 5.6569 1.58583C6.18733 1.58583 6.69604 1.79655 7.07111 2.17162C7.44619 2.54669 7.6569 3.0554 7.6569 3.58583C7.6569 4.11627 7.44619 4.62497 7.07111 5.00005L6.50543 5.56573" stroke="#64748B" stroke-linecap="round" stroke-linejoin="round"/>
<path d="M3.11133 6.13159L5.37407 3.86885" stroke="#64748B" stroke-linecap="round" stroke-linejoin="round"/>
</svg>
